<?xml version="1.0" encoding="UTF-8"?>
<svg id="Layer_1" data-name="Layer 1" xmlns="http://www.w3.org/2000/svg" viewBox="0 0 426 258.41">
  <defs>
    <style>
      .cls-1 {
        fill: #141414;
        stroke-width: 0px;
      }
    </style>
  </defs>
  <g>
    <path class="cls-1" d="M111.36.24c2.82,4.69,5.01,9.71,6.9,14.84l1.36,3.88c.44,1.3.78,2.62,1.18,3.94.4,1.32.75,2.64,1.08,3.98.33,1.33.7,2.66.98,4.01.59,2.69,1.14,5.4,1.51,8.13.2,1.37.44,2.73.6,4.1l.45,4.13.22,2.07.13,2.07c.09,1.38.17,2.77.23,4.16.1,2.77.02,5.55.03,8.34-.11,2.78-.28,5.56-.42,8.34-.29,2.77-.55,5.55-.91,8.32l-1.46,8.25c-.59,2.73-1.26,5.44-1.89,8.17-.29,1.37-.75,2.69-1.12,4.04l-1.19,4.03c-.19.67-.41,1.34-.62,2.01-.23.66-.49,1.31-.73,1.96l-1.49,3.92c-.51,1.3-.97,2.62-1.51,3.91l-1.71,3.83c-1.16,2.54-2.21,5.14-3.56,7.58l-3.88,7.42-4.41,7.1c-1.41,2.4-3.09,4.62-4.68,6.9l-2.4,3.4-1.21,1.7-1.29,1.63-5.18,6.5c-.44.53-.87,1.07-1.33,1.59l-1.41,1.52-2.81,3.04-2.81,3.04c-.93,1.02-1.87,2.03-2.88,2.97l-5.93,5.74c-1,.94-1.95,1.94-2.99,2.83l-3.15,2.65-6.3,5.29c-1.03.9-2.14,1.7-3.23,2.53l-3.27,2.47c-2.17,1.66-4.39,3.25-6.59,4.86-4.57,2.98-9.08,6.03-13.69,8.91-4.75,2.67-9.43,5.41-14.18,7.99l-.06.03c-.66.36-1.48.11-1.84-.55-.33-.62-.14-1.38.43-1.77l13.27-9.07,12.83-9.66,6.17-5.15,3.08-2.57c1.02-.86,2.07-1.7,3.04-2.63l5.89-5.45,2.95-2.72c.97-.92,1.88-1.91,2.82-2.86l5.59-5.75c.95-.94,1.83-1.95,2.7-2.96l2.63-3.02,2.63-3.02,1.32-1.51c.43-.51.82-1.05,1.24-1.58l4.92-6.33c6.3-8.62,12.2-17.57,17-27.12,4.86-9.5,8.92-19.43,11.91-29.69,2.99-10.25,4.9-20.83,5.65-31.49.76-10.66.36-21.4-1.1-31.99-1.56-10.55-4.03-21.09-8.21-30.89-.09-.2,0-.44.21-.52.19-.08.4,0,.5.16v.02Z"/>
    <path class="cls-1" d="M16.15,215.37c6.91,1.61,14.18,8.77,17.98,14.51-10.72-4.21-22.56-6.34-34.13-4.47,6.9-9.38,9.64-21.15,11.09-32.59,3.39,6.57,6.58,15.12,5.06,22.54Z"/>
  </g>
  <g>
    <path class="cls-1" d="M211.84,241.32c-1.18-20.08-1.79-40.15-2.28-60.23-.15-10.04-.41-20.08-.46-30.11-.06-5.02-.07-10.04-.08-15.06-.03-5.02-.02-10.04,0-15.06.08-20.08.33-40.15.98-60.23.61-20.08,1.44-40.15,3-60.23,1.56,20.08,2.39,40.15,3,60.23.65,20.08.9,40.15.98,60.23.02,5.02.03,10.04,0,15.06,0,5.02-.03,10.04-.08,15.06-.05,10.04-.31,20.08-.46,30.11-.48,20.08-1.09,40.15-2.28,60.23-.04.64-.59,1.13-1.23,1.09-.6-.04-1.06-.51-1.09-1.09Z"/>
    <path class="cls-1" d="M213,239.39c-5.02-5.02-14.93-7.41-21.82-7.6,9.24,6.88,17.3,15.81,21.82,26.62,4.33-10.81,12.87-19.35,21.82-26.62-7.37.59-16.31,2.39-21.82,7.6Z"/>
  </g>
  <g>
    <path class="cls-1" d="M315.36.58c-2.9,10.32-4.46,20.86-5.17,31.33-.09,2.63-.32,5.23-.33,7.85-.02,1.31-.08,2.61-.06,3.92l.08,3.91c-.02,2.6.33,5.2.39,7.79.15,2.59.47,5.17.69,7.74.34,2.57.74,5.12,1.1,7.67.5,2.54,1.04,5.06,1.46,7.6l1.77,7.52c.69,2.48,1.45,4.94,2.16,7.4.33,1.24.83,2.43,1.24,3.65l1.29,3.63c.22.6.42,1.21.62,1.82.22.6.47,1.19.71,1.79l1.43,3.58c.49,1.19.93,2.39,1.45,3.57l1.64,3.49c1.12,2.32,2.11,4.69,3.41,6.92,4.74,9.13,10.26,17.88,16.35,26.26,3.18,4.1,6.22,8.3,9.62,12.26l2.49,3.01c.82,1.01,1.65,2.02,2.56,2.96l5.32,5.76,2.67,2.88,2.77,2.8,5.55,5.6c.91.96,1.9,1.82,2.87,2.71l2.92,2.66c1.96,1.76,3.86,3.6,5.79,5.42l12.08,10.37c4.13,3.36,8.32,6.65,12.44,10.09l.15.12c.57.48.65,1.33.17,1.9-.45.53-1.23.63-1.79.25l-13.36-9.02-12.93-9.62-6.22-5.13-3.11-2.56c-1.03-.86-2.09-1.69-3.06-2.62l-5.95-5.44-2.98-2.72c-.98-.92-1.9-1.91-2.85-2.86l-5.66-5.75c-.96-.94-1.85-1.95-2.74-2.96l-2.67-3.03-2.67-3.03-1.33-1.51c-.43-.52-.84-1.05-1.26-1.58l-4.99-6.35-1.25-1.59-1.16-1.65-2.31-3.31c-1.52-2.22-3.14-4.38-4.49-6.71l-4.23-6.89-3.78-7.14c-4.85-9.62-8.89-19.66-11.84-30.02-2.96-10.36-4.82-21.04-5.51-31.78-.7-10.75-.23-21.56,1.3-32.21,1.64-10.63,4.17-21.16,8.46-31.09.09-.2.32-.29.52-.21.18.08.28.28.22.47l-.02.08Z"/>
    <path class="cls-1" d="M409.85,215.37c-1.61-6.91,1.6-16.59,5.06-22.54.96,11.48,4.3,23.04,11.09,32.59-11.47-2.03-23.23.71-34.13,4.47,4.39-5.95,10.64-12.59,17.98-14.51Z"/>
  </g>
</svg>