<?xml version="1.0" encoding="UTF-8"?>
<svg id="Layer_1" data-name="Layer 1" xmlns="http://www.w3.org/2000/svg" viewBox="0 0 115.06 36.81">
  <defs>
    <style>
      .cls-1 {
        fill: #cfc0ae;
        stroke-width: 0px;
      }
    </style>
  </defs>
  <path class="cls-1" d="M14.32,35.22c.06.73-.09,1.21-.72,1.34-1.82.37-5.04.52-5.33-.91-.37-1.82,2.04-16.55,3.34-21.55.3-1.17.57-2.09.67-2.2-4.54,1.4-7.14,4.65-6.4,8.33.5,2.49,1.6,2.85,1.69,3.29.05.24-.12.44-.55.52-1.9.38-6.19-.69-6.86-4.02-1.19-5.94,4.46-9.58,13.05-11.31,3.26-.57,5.48-.84,7.16-1.06,2.03-.27,3.47-.46,4.32-.56.28-.03.48.11.52.35.19.95-1.52,4.04-3.03,4.34-1.5.3-2.69-.7-3.76-.48-.44.09-.6.7-.69,1.09-1.55,6.86-3.86,18.15-3.41,22.84h0Z"/>
  <path class="cls-1" d="M28.52,24.36c-.47.05-.58-.2-.77-.78-.31-.88-.93-1.85-1.91-1.75-.6.06-.94.49-.89,1.04.23,2.18,5.26,2.35,5.6,5.6.31,2.95-1.95,5.3-6.95,5.83-4.36.46-6.91-1.57-7.03-2.72-.13-1.24,2.2-3.38,3.65-3.54.6-.06.8.18.92.51.45,1.42,1.54,2.35,2.48,2.25.51-.05.86-.44.81-.91-.29-2.74-5.54-2.58-5.88-5.78-.3-2.86,2.96-5.15,7.32-5.6,3.51-.37,5.69,1.13,5.85,2.63.12,1.11-2.14,3.12-3.21,3.23h.01Z"/>
  <path class="cls-1" d="M38.5,26.62c.1.48.38.67.82.58,2.3-.46,3.78-7.22,3.04-10.94-.08-.4.14-.73.7-.84,2.3-.46,4.88.71,5.13,1.98.25,1.23-1.87,6.06-1.17,9.58.28,1.39.56,1.37.67,1.88.06.28-.1.51-.5.59-3.21.64-4.88-1.33-5.16-1.27-.44.09-2.13,2.73-5.45,3.4-1.86.37-3.54-.4-3.95-2.46-.57-2.85,1.74-7.97,1.1-11.13-.08-.4.26-.75,1.01-.9,1.94-.39,4.23.96,4.55,2.59.41,2.06-1.19,4.97-.79,6.95h0Z"/>
  <path class="cls-1" d="M64.23,24.35c.4,1.98,1.97,3.27,4.35,2.79,1.23-.25,1.69-.79,2.05-.86.28-.06.51.1.57.38.16.79-1.77,3.9-6.05,4.75-3.29.66-6.41-.98-7.06-4.19-.93-4.63,1.9-9.4,1.59-10.98-.07-.36-.36-.59-.76-.51-.75.15-2.34,1.09-3.09,3.3-.81,2.3-1.48,6.6-1.21,7.94.12.59.07.97-.56,1.1-1.86.37-4.53.41-4.81-1.01-.52-2.61,4.04-19.67,3.44-22.68-.08-.4.22-.74.97-.89,2.06-.41,4.24,1,4.46,2.11.34,1.7-1.53,8.38-1.43,8.89.02.08.06.11.14.09.16-.03,2.52-2.44,5.05-2.95,1.98-.4,3.25.42,3.57,2,.54,2.69-2,6.87-1.23,10.71h.01Z"/>
  <path class="cls-1" d="M73.09,14.5c.02.12.11.14.19.13,1.54-.31,3.38-3.27,3.48-5.43.05-.38.29-.59.69-.67,1.47-.29,4.38-.75,4.62.47.47,2.34-4.66,6.95-7.43,7.91,0,0,1.97,1.83,4.86,1.25.87-.17,1.02-.45,1.42-.53s.59.05.66.4c.26,1.31-1.82,4.89-4.59,5.45-2.18.44-3.78-4.27-4.53-4.12-.48.1-.81,3.17-.66,4.29.08.6-.03.87-.59.98-1.86.37-4.53.41-4.81-1.01-.57-2.85,4.08-19.51,3.44-22.68-.08-.4.22-.74.97-.89,1.66-.33,4.24,1,4.46,2.11.35,1.74-2.27,11.9-2.18,12.34h0Z"/>
  <path class="cls-1" d="M91.9,9.12c-.59.12-1.73,1.25-2.52,3.26-.95,2.46-1.88,6.22-1.54,7.93.12.59.07.97-.56,1.1-1.86.37-4.53.41-4.81-1.01-.57-2.85,1.89-9.27,1.25-12.44-.08-.4.22-.74.97-.9,3.52-.71,4.26,2.15,4.42,2.12s2.23-3.45,5.79-4.17c1.98-.4,3.21.43,3.53,2.01.54,2.69-2,6.87-1.23,10.71.4,1.98,1.97,3.27,4.39,2.79,1.23-.25,1.69-.79,2.01-.86.28-.06.55.1.61.37.16.79-1.81,3.9-6.05,4.75-3.33.67-6.41-.98-7.06-4.19-.93-4.63,1.86-9.39,1.55-10.98-.07-.36-.32-.59-.76-.51v.02Z"/>
  <path class="cls-1" d="M113.93,16.74c-3.21.64-4.92-1.32-5.19-1.26-.48.1-2.05,2.72-5.65,3.44-2.02.4-3.56-.69-4-2.9-1.03-5.15,3.08-11.78,9.53-13.07,3.4-.68,6.26.8,6.44,1.72.15.75-2.23,4.89-1.25,9.76.24,1.19.54,1.25.63,1.73.06.28-.1.51-.5.59h0ZM104.63,13.91c.08.4.38.66.86.57,2.1-.42,4.09-7.53,3.92-8.4-.07-.36-.26-.48-.58-.42-2.42.48-4.71,5.68-4.19,8.25h0Z"/>
</svg>